<svg xmlns="http://www.w3.org/2000/svg" width="800" height="560" viewBox="0 0 800 560">
  <defs>
    <linearGradient id="db-bg" x1="0%" y1="0%" x2="100%" y2="100%">
      <stop offset="0%" stop-color="#0f172a" />
      <stop offset="100%" stop-color="#1e293b" />
    </linearGradient>
  </defs>
  <rect width="800" height="560" rx="28" fill="url(#db-bg)" />
  <rect x="90" y="120" width="620" height="320" rx="26" fill="#111827" opacity="0.95" />
  <rect x="130" y="160" width="220" height="240" rx="20" fill="#1d4ed8" opacity="0.9" />
  <rect x="380" y="180" width="270" height="70" rx="16" fill="#1e3a8a" opacity="0.9" />
  <rect x="380" y="270" width="270" height="70" rx="16" fill="#2563eb" opacity="0.85" />
  <rect x="380" y="360" width="180" height="48" rx="14" fill="#38bdf8" opacity="0.95" />
  <text x="400" y="96" text-anchor="middle" font-size="40" font-family="'Inter', Arial, sans-serif" fill="#e2e8f0">DB Lab</text>
  <text x="470" y="392" text-anchor="middle" font-size="18" font-family="'Inter', Arial, sans-serif" fill="#0f172a">Run Benchmark</text>
  <circle cx="240" cy="240" r="65" fill="#2563eb" opacity="0.85" />
  <path d="M200 240 C230 210 250 210 280 240 C250 270 230 270 200 240 Z" fill="#1e3a8a" opacity="0.9" />
  <rect x="190" y="310" width="100" height="18" rx="9" fill="#bae6fd" opacity="0.7" />
  <rect x="190" y="340" width="140" height="18" rx="9" fill="#bae6fd" opacity="0.5" />
  <polyline points="400,320 430,300 470,330 520,250 570,290 610,240" fill="none" stroke="#f8fafc" stroke-width="6" stroke-linecap="round" stroke-linejoin="round" opacity="0.85" />
  <circle cx="430" cy="300" r="8" fill="#f8fafc" />
  <circle cx="470" cy="330" r="8" fill="#f8fafc" />
  <circle cx="520" cy="250" r="8" fill="#f8fafc" />
  <circle cx="570" cy="290" r="8" fill="#f8fafc" />
  <circle cx="610" cy="240" r="8" fill="#f8fafc" />
</svg>
