<svg xmlns="http://www.w3.org/2000/svg" width="800" height="560" viewBox="0 0 800 560">
  <defs>
    <linearGradient id="todo-bg" x1="0%" y1="0%" x2="100%" y2="100%">
      <stop offset="0%" stop-color="#0f172a" />
      <stop offset="100%" stop-color="#0f766e" />
    </linearGradient>
  </defs>
  <rect width="800" height="560" rx="28" fill="url(#todo-bg)" />
  <rect x="90" y="120" width="620" height="320" rx="26" fill="#020617" opacity="0.92" />
  <rect x="130" y="160" width="250" height="240" rx="20" fill="#134e4a" opacity="0.9" />
  <rect x="420" y="170" width="220" height="70" rx="16" fill="#0ea5e9" opacity="0.85" />
  <rect x="420" y="260" width="220" height="70" rx="16" fill="#38bdf8" opacity="0.85" />
  <rect x="420" y="350" width="160" height="48" rx="14" fill="#fbbf24" opacity="0.92" />
  <text x="400" y="96" text-anchor="middle" font-size="40" font-family="'Inter', Arial, sans-serif" fill="#ecfeff">Dockerized Todo App</text>
  <text x="500" y="383" text-anchor="middle" font-size="18" font-family="'Inter', Arial, sans-serif" fill="#0f172a">Start Stack</text>
  <circle cx="255" cy="235" r="60" fill="#22d3ee" opacity="0.9" />
  <path d="M230 235 L250 255 L285 215" fill="none" stroke="#0f172a" stroke-width="8" stroke-linecap="round" stroke-linejoin="round" />
  <rect x="200" y="310" width="140" height="18" rx="9" fill="#99f6e4" opacity="0.8" />
  <rect x="200" y="340" width="120" height="18" rx="9" fill="#99f6e4" opacity="0.6" />
  <polyline points="430,320 460,300 490,330 540,250 590,290 630,240" fill="none" stroke="#14b8a6" stroke-width="6" stroke-linecap="round" stroke-linejoin="round" opacity="0.9" />
  <circle cx="460" cy="300" r="8" fill="#a7f3d0" />
  <circle cx="490" cy="330" r="8" fill="#a7f3d0" />
  <circle cx="540" cy="250" r="8" fill="#a7f3d0" />
  <circle cx="590" cy="290" r="8" fill="#a7f3d0" />
  <circle cx="630" cy="240" r="8" fill="#a7f3d0" />
</svg>
