<svg xmlns="http://www.w3.org/2000/svg" width="800" height="560" viewBox="0 0 800 560">
  <defs>
    <linearGradient id="bg" x1="0%" y1="0%" x2="100%" y2="100%">
      <stop offset="0%" stop-color="#0f766e" />
      <stop offset="100%" stop-color="#14b8a6" />
    </linearGradient>
  </defs>
  <rect width="800" height="560" rx="28" fill="url(#bg)" />
  <rect x="90" y="120" width="620" height="320" rx="24" fill="#0f172a" opacity="0.92" />
  <rect x="130" y="160" width="200" height="240" rx="18" fill="#1f2937" opacity="0.95" />
  <rect x="360" y="180" width="300" height="70" rx="16" fill="#134e4a" opacity="0.85" />
  <rect x="360" y="270" width="300" height="70" rx="16" fill="#115e59" opacity="0.85" />
  <rect x="360" y="360" width="180" height="50" rx="14" fill="#f59e0b" opacity="0.9" />
  <text x="400" y="96" text-anchor="middle" font-size="40" font-family="'Inter', Arial, sans-serif" fill="#ccfbf1">VetChart EMR System</text>
  <text x="450" y="392" text-anchor="middle" font-size="18" font-family="'Inter', Arial, sans-serif" fill="#0f172a">Open Patient Chart</text>
  <circle cx="230" cy="220" r="60" fill="#22d3ee" opacity="0.85" />
  <path d="M230 180 C246 180 260 194 260 210 C260 226 246 240 230 240 C214 240 200 226 200 210 C200 194 214 180 230 180 Z" fill="#0f172a" opacity="0.9" />
  <rect x="170" y="300" width="120" height="20" rx="10" fill="#38bdf8" opacity="0.8" />
  <rect x="170" y="330" width="140" height="20" rx="10" fill="#38bdf8" opacity="0.6" />
  <rect x="170" y="360" width="100" height="20" rx="10" fill="#38bdf8" opacity="0.5" />
  <polyline points="390,320 420,300 450,330 500,250 560,290 600,240" fill="none" stroke="#5eead4" stroke-width="6" stroke-linecap="round" stroke-linejoin="round" opacity="0.9" />
  <circle cx="420" cy="300" r="8" fill="#99f6e4" />
  <circle cx="450" cy="330" r="8" fill="#99f6e4" />
  <circle cx="500" cy="250" r="8" fill="#99f6e4" />
  <circle cx="560" cy="290" r="8" fill="#99f6e4" />
  <circle cx="600" cy="240" r="8" fill="#99f6e4" />
</svg>
